<?xml version="1.0" encoding="utf-8"?>
<!-- Generator: Adobe Illustrator 17.0.0, SVG Export Plug-In . SVG Version: 6.00 Build 0)  -->
<!DOCTYPE svg PUBLIC "-//W3C//DTD SVG 1.1//EN" "http://www.w3.org/Graphics/SVG/1.1/DTD/svg11.dtd">
<svg version="1.1" id="Camada_1" xmlns="http://www.w3.org/2000/svg" xmlns:xlink="http://www.w3.org/1999/xlink" x="0px" y="0px"
	 width="100%" height="100%" viewBox="12.293 0 22.893 23.003" enable-background="new 12.293 0 22.893 23.003"
	 xml:space="preserve">
<g>
	<path fill="#FFFFFF" d="M31.868,3.343C29.716,1.188,26.855,0.001,23.805,0c-6.283,0-11.396,5.113-11.398,11.398
		c-0.001,2.009,0.524,3.97,1.521,5.698l-1.617,5.907l6.043-1.585c1.665,0.908,3.539,1.387,5.447,1.387h0.005
		c6.282,0,11.396-5.114,11.398-11.398C35.204,8.361,34.021,5.498,31.868,3.343z M23.805,20.879H23.8c-1.7,0-3.367-0.457-4.822-1.32
		l-0.346-0.205l-3.586,0.941l0.957-3.496l-0.225-0.358c-0.948-1.508-1.449-3.252-1.448-5.042c0.003-5.224,4.253-9.474,9.478-9.474
		c2.53,0.001,4.909,0.988,6.698,2.778c1.789,1.791,2.773,4.171,2.772,6.702C33.277,16.629,29.027,20.879,23.805,20.879z"/>
	<path fill="#FFFFFF" d="M29.001,13.786c-0.285-0.142-1.685-0.832-1.946-0.927c-0.261-0.095-0.451-0.142-0.641,0.143
		c-0.19,0.285-0.736,0.926-0.902,1.116c-0.166,0.19-0.332,0.214-0.617,0.071c-0.285-0.142-1.203-0.443-2.29-1.414
		c-0.847-0.755-1.418-1.688-1.584-1.973c-0.166-0.285-0.018-0.439,0.125-0.581c0.128-0.128,0.285-0.333,0.427-0.499
		c0.142-0.166,0.19-0.285,0.285-0.475c0.095-0.19,0.047-0.356-0.024-0.499c-0.071-0.143-0.641-1.544-0.878-2.115
		c-0.231-0.555-0.466-0.48-0.641-0.489c-0.166-0.008-0.356-0.01-0.546-0.01s-0.498,0.071-0.759,0.356
		c-0.261,0.285-0.997,0.974-0.997,2.376s1.021,2.756,1.163,2.946c0.142,0.19,2.008,3.067,4.865,4.301
		c0.68,0.293,1.21,0.468,1.624,0.6c0.682,0.217,1.303,0.186,1.794,0.113c0.547-0.082,1.685-0.689,1.922-1.354
		c0.237-0.665,0.237-1.235,0.166-1.354S29.287,13.928,29.001,13.786z"/>
</g>
</svg>
